<svg viewBox="-94 0 511 511.99907" xmlns="http://www.w3.org/2000/svg"><path d="m309.136719 201.820312h-148.050781c-4.734376-17.671874-5.105469-19.0625-20.347657-75.941406-2.746093-10.261718-12.703125-16.390625-22.585937-15.050781l-8.554688-31.925781c2.941406-1.628906 4.519532-5.097656 3.609375-8.496094-1.070312-4-5.183593-6.371094-9.1875-5.300781-.796875.210937-11.234375 3.007812-34.496093 9.242187-4.003907 1.074219-6.375 5.1875-5.304688 9.1875.898438 3.351563 3.929688 5.5625 7.238281 5.5625.046875 0 .089844-.007812.136719-.011718l8.554688 31.925781c-9.234376 3.78125-14.785157 14.074219-12.035157 24.328125 11.570313 43.1875 12.585938 46.96875 15.132813 56.480468h-69.238282c-7.449218 0-13.507812 6.0625-13.507812 13.507813v18.097656c0 7.449219 6.058594 13.507813 13.507812 13.507813h8.054688c2.222656 17.796875 29.21875 233.820312 30.210938 241.746094 1.660156 13.292968 13.015624 23.320312 26.410156 23.320312h165.777344c13.398437 0 24.753906-10.027344 26.414062-23.320312.574219-4.566407 13.746094-109.992188 14.242188-113.949219.511718-4.109375-2.402344-7.855469-6.515626-8.371094-4.101562-.515625-7.855468 2.402344-8.371093 6.511719l-11.625 93.011718h-78.878907c-4.144531 0-7.5 3.355469-7.5 7.5 0 4.140626 3.355469 7.5 7.5 7.5h77.007813l-.742187 5.9375c-.726563 5.804688-5.683594 10.179688-11.53125 10.179688h-165.777344c-5.847656 0-10.804688-4.375-11.527344-10.179688l-.742188-5.9375h78.3125c4.140626 0 7.5-3.359374 7.5-7.5 0-4.140624-3.359374-7.5-7.5-7.5h-80.1875l-27.363281-218.949218h248.792969l-11.363281 90.9375c-.515625 4.109375 2.402343 7.859375 6.511719 8.371094 4.101562.511718 7.859374-2.402344 8.375-6.511719l11.59375-92.796875h8.050781c7.449219 0 13.511719-6.0625 13.511719-13.511719v-18.09375c-.003907-7.449219-6.0625-13.507813-13.511719-13.507813zm-168.875-19.765624-43.648438 11.695312-7.886719-29.4375 43.648438-11.695312c2.273438 8.496093.726562 2.714843 7.886719 29.4375zm3.882812 14.492187 1.414063 5.273437h-21.097656zm-29.398437-69.449219 4.703125-1.261718c2.957031-.789063 6.019531 1.007812 6.800781 3.925781l2.242188 8.367187-43.648438 11.691406-2.242188-8.363281c-.785156-2.929687.984376-6.011719 3.925782-6.796875l4.707031-1.261718c3.996094-1.074219 6.375-5.1875 5.304687-9.1875l-10.394531-38.785157 9.019531-2.417969 10.394532 38.785157c1.070312 3.992187 5.175781 6.375 9.1875 5.304687zm192.898437 104.835938h-292.144531v-15.113282h292.144531zm0 0"/><path d="m162.625 420.945312 11.828125 9.425782c8.527344 6.792968 21.316406 4.28125 26.476563-5.59375h15.609374c19.765626 0 32.15625-21.3125 22.449219-38.445313l-14.210937-25.28125c-4.746094-8.445312-15.429688-11.449219-23.882813-6.695312-8.449219 4.75-11.445312 15.429687-6.695312 23.882812l4.785156 8.511719c-6.046875-7.433594-17.007813-8.636719-24.523437-2.652344l-11.851563 9.429688c-8.769531 7.035156-8.78125 20.40625.015625 27.417968zm9.519531-15.835937 11.65625-9.273437c1.597657-1.269532 3.980469-.226563 4.105469 1.816406.242188 3.960937 3.523438 7.046875 7.488281 7.046875h18.070313c5.726562 0 9.34375-6.183594 6.539062-11.175781l-12.726562-22.636719c-.6875-1.21875-.257813-2.765625.96875-3.457031 1.214844-.679688 2.765625-.253907 3.453125.972656l14.21875 25.289062c.003906.007813.007812.015625.015625.027344 3.988281 7.035156-.980469 16.058594-9.394532 16.058594h-21.144531c-3.96875 0-7.246093 3.085937-7.488281 7.042968-.125 2.066407-2.527344 3.082032-4.105469 1.820313l-11.769531-9.378906c-1.238281-1.019531-1.5-2.761719.113281-4.152344zm0 0"/><path d="m152.902344 336.667969 8.730468-15.621094.539063.953125c-6.117187 9.324219-2.09375 21.875 8.238281 25.941406l14.0625 5.539063c10.847656 4.265625 22.898438-3.035157 23.929688-14.792969l2.085937-13.875c1.617188-10.75-6.890625-20.433594-17.820312-20.144531l-8.675781-15.292969c-9.8125-17.292969-34.921876-17.492188-44.898438.097656l-16.8125 30.078125c-4.203125 7.519531-2.261719 16.683594 3.976562 21.945313-4.207031-1.488282-8.636718-1.261719-12.328124.1875l-14.074219 5.53125c-9.019531 3.542968-13.457031 13.710937-9.910157 22.734375.445313 1.140625 1.003907 2.21875 1.667969 3.226562l-7.433593 13.101563c-9.746094 17.179687 2.648437 38.496094 22.421874 38.496094h30.234376c9.671874 0 17.539062-7.867188 17.539062-17.539063s-7.867188-17.539063-17.539062-17.539063h-9.015626c8.035157-2.496093 13.414063-10.574218 12.101563-19.335937l-2.074219-13.882813c-.410156-4.660156-2.636718-8.898437-6.144531-11.859374 7.988281 2.867187 16.976563-.394532 21.199219-7.949219zm-16.0625 68.03125c3.351562 0 3.351562 5.074219 0 5.074219h-30.234375c-8.289063 0-13.460938-8.886719-9.375-16.089844l10.191406-17.972656c1.976563-3.480469.871094-7.898438-2.511719-10.039063-1.789062-1.132813-1.460937-3.75.429688-4.492187l14.082031-5.53125c.375-.148438 1.105469-.191407 1.167969-.15625 2.148437.179687 2.234375 1.933593 2.386718 2.949218l2.113282 14.140625c.304687 2.027344-1.792969 3.523438-3.585938 2.671875-3.546875-1.679687-7.792968-.335937-9.730468 3.078125l-8.605469 15.167969c-2.832031 4.992188.785156 11.199219 6.523437 11.199219zm-1.460938-77.824219 16.789063-30.042969c4.179687-7.367187 14.675781-7.285156 18.777343-.054687l11.378907 20.0625c1.941406 3.417968 6.191406 4.761718 9.746093 3.070312 1.808594-.863281 3.886719.664063 3.585938 2.671875l-2.125 14.136719c-.148438 1-.128906 1.960938-1.34375 2.648438-.71875.410156-1.550781.417968-2.21875.15625l-14.0625-5.535157c-1.304688-.515625-1.945312-1.988281-1.433594-3.292969h.003906c.195313-.5.53125-.902343.996094-1.199218 3.375-2.140625 4.476563-6.554688 2.503906-10.035156l-9.871093-17.398438c-2.882813-5.082031-10.21875-5.0625-13.070313.042969l-15.230468 27.246093c-.683594 1.222657-2.230469 1.65625-3.453126.976563-1.214843-.683594-1.660156-2.226563-.972656-3.453125zm0 0"/><path d="m180.234375 61.03125c-16.828125 62.808594-9.292969 34.675781-20.699219 77.25-2.933594 10.945312 3.585938 22.238281 14.53125 25.171875l32.921875 8.820313c10.945313 2.9375 22.242188-3.585938 25.171875-14.53125 15.605469-58.234376 7.238282-27 20.699219-77.25 2.753906-10.257813-2.804687-20.550782-12.035156-24.332032l8.554687-31.921875c.046875 0 .089844.007813.136719.007813 3.3125 0 6.339844-2.207032 7.238281-5.558594 1.070313-4.003906-1.300781-8.113281-5.304687-9.1875l-34.496094-9.242188c-4.003906-1.070312-8.113281 1.300782-9.1875 5.300782-.910156 3.398437.667969 6.867187 3.609375 8.496094l-8.550781 31.925781c-10.089844-1.363281-19.886719 4.964843-22.589844 15.050781zm44.125 67.871094-43.648437-11.695313 7.890624-29.4375 43.648438 11.691407zm-13.488281 28.882812-32.921875-8.820312c-2.933594-.785156-4.710938-3.863282-3.925781-6.800782l2.804687-10.464843 43.648437 11.695312-2.804687 10.464844c-.789063 2.949219-3.875 4.710937-6.800781 3.925781zm4.542968-100.839844 10.394532-38.785156 9.023437 2.417969-10.394531 38.785156c-1.070312 3.996094 1.304688 8.113281 5.304688 9.1875l4.703124 1.257813c2.945313.789062 4.710938 3.871094 3.925782 6.800781l-2.238282 8.367187-43.648437-11.695312 2.242187-8.367188c.664063-2.476562 2.910157-4.113281 5.363282-4.113281 1 0 1.261718.140625 6.140625 1.449219 4.015625 1.074219 8.117187-1.320312 9.183593-5.304688zm0 0"/></svg>